<svg xmlns="http://www.w3.org/2000/svg"
 xmlns:xlink="http://www.w3.org/1999/xlink"
 width="27px" height="27px"  viewBox="0 0 27 27">
<path fill-rule="evenodd"  fill="#ffffff"
 d="M24.85913,23.503708 C24.85913,23.503708 18.177979,16.822746 18.177979,16.822746 C19.44519,15.258244 20.207886,13.269356 20.207886,11.103561 C20.207886,6.0838966 16.123901,1.9997864 11.104004,1.9997864 C6.0839844,1.9997864 2.0,6.0838966 2.0,11.103561 C2.0,16.123703 6.0841064,20.20781 11.104004,20.20781 C13.269409,20.20781 15.258423,19.44487 16.822876,18.177917 C16.822876,18.177917 23.504028,24.858887 23.504028,24.858887 C23.691284,25.04628 23.994507,25.04628 24.181763,24.858887 C24.181763,24.858887 24.85913,24.181297 24.85913,24.181297 C25.046265,23.994377 25.046265,23.691109 24.85913,23.503708 ZM11.104004,18.291405 C7.140625,18.291405 3.916626,15.067032 3.916626,11.103561 C3.916626,7.140568 7.140625,3.916195 11.104004,3.916195 C15.067383,3.916195 18.291382,7.140568 18.291382,11.103561 C18.291382,15.067032 15.067383,18.291405 11.104004,18.291405 Z"/>
</svg>