<svg xmlns="http://www.w3.org/2000/svg"
 xmlns:xlink="http://www.w3.org/1999/xlink"
 width="105px" height="92px"  viewBox="0 0 105 92">
<path fill-rule="evenodd"  fill="#ffffff"
 d="M86.56833,12.181152 C85.46866,12.181152 84.57611,13.064453 84.57611,14.151855 C84.57611,15.239746 85.46866,16.12207 86.56833,16.12207 C87.668,16.12207 88.56055,15.239746 88.56055,14.151855 C88.56055,13.063965 87.668,12.181152 86.56833,12.181152 ZM96.91934,10.196289 C92.16501,4.911133 85.570465,2.0004883 78.350555,2.0004883 C70.45566,2.0004883 63.251556,5.0268555 57.517456,10.753418 C55.523438,12.744629 54.03308,14.733887 52.99994,16.3125 C51.966797,14.734375 50.47644,12.745117 48.482513,10.753418 C42.74832,5.0268555 35.544388,2.0 27.649338,2.0 C12.53746,2.0 1.999939,14.504395 1.999939,29.371582 C1.999939,49.4541 23.516418,66.36377 51.69522,90.518555 C52.06961,90.839355 52.53473,90.99951 52.99994,90.99951 C53.46515,90.99951 53.93036,90.839355 54.304657,90.518555 C82.55066,66.30615 103.99994,49.42627 103.99994,29.371582 C103.99994,22.082031 101.48544,15.271973 96.91934,10.196289 ZM52.99994,86.42236 C26.390533,63.64746 5.9842987,47.28955 5.9842987,29.371582 C5.9842987,16.01416 15.298218,5.940918 27.649338,5.940918 C34.507294,5.940918 40.531067,8.460449 45.553345,13.429199 C49.379517,17.214355 51.164795,21.077148 51.182312,21.115723 C51.502808,21.822754 52.21347,22.276855 52.99695,22.27832 C52.99814,22.27832 52.999603,22.27832 53.0007,22.27832 C53.78409,22.27832 54.495728,21.822266 54.81784,21.115723 C54.835358,21.077148 56.620544,17.214355 60.446777,13.429199 C65.46881,8.459961 71.492584,5.940918 78.35071,5.940918 C90.701935,5.940918 100.01575,16.01416 100.01575,29.371582 C100.015594,47.693848 78.26291,64.799805 52.99994,86.42236 ZM93.536224,19.201172 C93.02521,18.237305 91.82089,17.86621 90.84674,18.371094 C89.872375,18.876465 89.49661,20.067871 90.00763,21.03125 C91.32266,23.51123 92.046814,26.473633 92.046814,29.371582 C92.046814,35.06543 89.30701,41.1084 83.424255,48.38965 C82.737366,49.240234 82.87744,50.47998 83.73685,51.15918 C84.60187,51.84326 85.85431,51.694824 86.536835,50.850586 C93.01422,42.833008 96.03125,36.007812 96.03125,29.371582 C96.03125,25.796387 95.168396,22.279785 93.536224,19.201172 ZM72.125,39.76758 C72.125,39.76758 60.96872,39.76758 60.96872,39.76758 C60.96872,39.76758 60.96872,28.733398 60.96872,28.733398 C60.96872,27.64502 60.076782,26.762695 58.9765,26.762695 C58.9765,26.762695 47.023376,26.762695 47.023376,26.762695 C45.923126,26.762695 45.03125,27.64502 45.03125,28.733398 C45.03125,28.733398 45.03125,39.76758 45.03125,39.76758 C45.03125,39.76758 33.87497,39.76758 33.87497,39.76758 C32.77472,39.76758 31.882751,40.649902 31.882751,41.73828 C31.882751,41.73828 31.882751,53.561035 31.882751,53.561035 C31.882751,54.649414 32.77472,55.53125 33.87497,55.53125 C33.87497,55.53125 45.03125,55.53125 45.03125,55.53125 C45.03125,55.53125 45.03125,66.56592 45.03125,66.56592 C45.03125,67.654785 45.923126,68.53662 47.023376,68.53662 C47.023376,68.53662 58.9765,68.53662 58.9765,68.53662 C60.076782,68.53662 60.96872,67.654785 60.96872,66.56592 C60.96872,66.56592 60.96872,55.53125 60.96872,55.53125 C60.96872,55.53125 72.125,55.53125 72.125,55.53125 C73.22525,55.53125 74.11713,54.649414 74.11713,53.561035 C74.11713,53.561035 74.11713,41.73828 74.11713,41.73828 C74.11713,40.649902 73.22525,39.76758 72.125,39.76758 ZM70.13278,51.590332 C70.13278,51.590332 58.9765,51.590332 58.9765,51.590332 C57.87625,51.590332 56.984375,52.472656 56.984375,53.560547 C56.984375,53.560547 56.984375,64.5957 56.984375,64.5957 C56.984375,64.5957 49.015594,64.5957 49.015594,64.5957 C49.015594,64.5957 49.015594,53.560547 49.015594,53.560547 C49.015594,52.472656 48.123657,51.590332 47.023376,51.590332 C47.023376,51.590332 35.86711,51.590332 35.86711,51.590332 C35.86711,51.590332 35.86711,43.708984 35.86711,43.708984 C35.86711,43.708984 47.023376,43.708984 47.023376,43.708984 C48.123657,43.708984 49.015594,42.82666 49.015594,41.737793 C49.015594,41.737793 49.015594,30.703613 49.015594,30.703613 C49.015594,30.703613 56.984375,30.703613 56.984375,30.703613 C56.984375,30.703613 56.984375,41.737793 56.984375,41.737793 C56.984375,42.82666 57.87625,43.708984 58.9765,43.708984 C58.9765,43.708984 70.13278,43.708984 70.13278,43.708984 C70.13278,43.708984 70.13278,51.590332 70.13278,51.590332 Z"/>
</svg>