<svg xmlns="http://www.w3.org/2000/svg"
 xmlns:xlink="http://www.w3.org/1999/xlink"
 width="78px" height="92px"  viewBox="0 0 78 92">
<path fill-rule="evenodd"  fill="#ffffff"
 d="M13.418457,48.059082 C13.578308,49.83545 14.57605,51.507324 16.24585,52.444824 C17.631714,53.22461 19.060547,53.79492 20.519836,54.182617 C19.69751,56.963867 18.186768,60.98877 15.4973755,65.29932 C12.942871,69.396484 12.912598,74.34033 15.417114,78.86572 C19.106445,85.53418 27.253357,90.015625 35.692383,90.015625 C41.486572,90.015625 46.64081,87.34033 50.198486,82.484375 C55.28717,75.53711 56.41443,65.28711 53.213684,55.07129 C50.246887,45.598145 54.21466,40.5459 56.840027,38.373047 C58.978943,40.44043 61.883545,41.71582 65.090515,41.71582 C71.666504,41.71582 76.99835,36.371582 76.99835,29.779297 C76.99835,23.187012 71.666504,17.845215 65.090515,17.845215 C58.514404,17.845215 53.182556,23.188965 53.182556,29.779297 C53.182556,30.70752 53.29944,31.606445 53.499023,32.47412 C48.539795,36.10742 42.818054,44.28955 46.821655,57.081055 C49.34723,65.146484 48.574036,73.35596 44.797974,78.50928 C43.1969,80.69678 40.315735,83.302734 35.690857,83.302734 C29.707336,83.302734 23.77826,80.140625 21.274475,75.61182 C20.350586,73.94043 19.585938,71.41211 21.178528,68.856445 C24.735413,63.149902 26.515991,57.824707 27.36023,54.570312 C29.336914,54.271484 31.267029,53.632812 33.1239,52.63867 C34.778748,51.75293 35.794617,50.149902 36.01831,48.418457 C43.88452,41.28955 47.518494,28.444824 47.72583,27.694336 C48.14984,26.152344 47.426575,24.56836 46.07318,23.84668 C47.1615,14.205078 43.600647,9.346191 41.45233,7.3652344 C41.61444,6.4384766 41.24652,5.448242 40.43268,4.916992 C40.43268,4.916992 36.485962,2.3305664 36.485962,2.3305664 C35.454712,1.65625 34.158325,1.996582 33.59326,3.0966797 C33.59326,3.0966797 31.712158,6.741211 31.712158,6.741211 C31.145508,7.840332 31.64502,9.014648 32.828552,9.36377 C32.828552,9.36377 37.292114,10.683594 37.292114,10.683594 C38.42456,11.017578 39.77948,10.475586 40.420227,9.481934 C42.199158,11.359863 44.76056,15.541016 43.87805,23.51709 C42.665283,23.749023 41.62372,24.63379 41.271362,25.907715 C40.200317,29.765137 37.103394,37.734863 32.50415,42.512207 C31.040222,41.9458 29.357239,41.973145 27.864563,42.77002 C26.892456,43.291016 25.941406,43.55371 24.965515,43.573242 C24.965515,43.573242 24.764343,43.573242 24.764343,43.573242 C23.736084,43.551758 22.732056,43.260742 21.70398,42.68506 C20.247864,41.865234 18.589783,41.793457 17.12738,42.310547 C12.631165,37.512207 9.599609,29.712402 8.544861,25.907715 C8.191711,24.637207 7.147949,23.750977 5.938904,23.518555 C5.0549316,15.542969 7.6157227,11.361328 9.396851,9.483398 C10.038452,10.477051 11.392456,11.019043 12.524292,10.685059 C12.524292,10.685059 16.987854,9.365234 16.987854,9.365234 C18.169556,9.016113 18.672424,7.840332 18.104065,6.743164 C18.104065,6.743164 16.224731,3.0981445 16.224731,3.0981445 C15.657959,1.9980469 14.361694,1.6572266 13.33197,2.3325195 C13.33197,2.3325195 9.379822,4.919922 9.379822,4.919922 C8.568237,5.451172 8.199524,6.4418945 8.362549,7.3686523 C6.217163,9.348633 2.6532593,14.207031 3.7406616,23.850098 C2.3883057,24.57129 1.6655273,26.154785 2.0881348,27.698242 C2.2930908,28.434082 5.815857,40.86914 13.418457,48.059082 ZM65.090515,25.1167 C67.658325,25.1167 69.742615,27.203613 69.742615,29.779297 C69.742615,32.35547 67.658325,34.441895 65.090515,34.441895 C62.52118,34.441895 60.438354,32.35547 60.438354,29.779297 C60.438354,27.203613 62.52118,25.1167 65.090515,25.1167 Z"/>
</svg>