<svg xmlns="http://www.w3.org/2000/svg"
 xmlns:xlink="http://www.w3.org/1999/xlink"
 width="93px" height="93px"  viewBox="0 0 93 93">
<path fill-rule="evenodd"  fill="#ffffff"
 d="M88.270386,23.688477 C88.270386,23.688477 92.0,19.958984 92.0,19.958984 C92.0,19.958984 74.04114,2.0 74.04114,2.0 C74.04114,2.0 70.31152,5.729004 70.31152,5.729004 C70.31152,5.729004 72.9364,8.354004 72.9364,8.354004 C72.9364,8.354004 63.61792,17.672363 63.61792,17.672363 C63.61792,17.672363 54.03174,8.086914 54.03174,8.086914 C54.03174,8.086914 50.302246,11.815918 50.302246,11.815918 C50.302246,11.815918 55.549072,17.062988 55.549072,17.062988 C55.549072,17.062988 14.1345215,58.478027 14.1345215,58.478027 C14.1345215,58.478027 18.548828,62.89209 18.548828,62.89209 C18.548828,62.89209 9.720093,71.72119 9.720093,71.72119 C9.720093,71.72119 14.134644,76.13574 14.134644,76.13574 C14.134644,76.13574 2.0,88.27002 2.0,88.27002 C2.0,88.27002 5.729492,91.99951 5.729492,91.99951 C5.729492,91.99951 17.864014,79.865234 17.864014,79.865234 C17.864014,79.865234 22.278564,84.279785 22.278564,84.279785 C22.278564,84.279785 31.107422,75.45117 31.107422,75.45117 C31.107422,75.45117 35.52185,79.86572 35.52185,79.86572 C35.52185,79.86572 76.9364,38.450684 76.9364,38.450684 C76.9364,38.450684 82.18347,43.697754 82.18347,43.697754 C82.18347,43.697754 85.912964,39.96826 85.912964,39.96826 C85.912964,39.96826 76.326904,30.381836 76.326904,30.381836 C76.326904,30.381836 85.64551,21.063477 85.64551,21.063477 C85.64551,21.063477 88.270386,23.688477 88.270386,23.688477 ZM22.278564,76.82031 C22.278564,76.82031 17.179321,71.72119 17.179321,71.72119 C17.179321,71.72119 22.278564,66.62158 22.278564,66.62158 C22.278564,66.62158 27.377808,71.72119 27.377808,71.72119 C27.377808,71.72119 22.278564,76.82031 22.278564,76.82031 ZM35.521973,72.40576 C35.521973,72.40576 21.59375,58.478027 21.59375,58.478027 C21.59375,58.478027 26.917236,53.15381 26.917236,53.15381 C26.917236,53.15381 30.130615,56.367676 30.130615,56.367676 C30.130615,56.367676 33.86035,52.638184 33.86035,52.638184 C33.86035,52.638184 30.64685,49.424805 30.64685,49.424805 C30.64685,49.424805 34.41858,45.652832 34.41858,45.652832 C34.41858,45.652832 37.63208,48.86621 37.63208,48.86621 C37.63208,48.86621 41.361572,45.13672 41.361572,45.13672 C41.361572,45.13672 38.148193,41.92334 38.148193,41.92334 C38.148193,41.92334 41.920044,38.151367 41.920044,38.151367 C41.920044,38.151367 55.848267,52.07959 55.848267,52.07959 C55.848267,52.07959 35.521973,72.40576 35.521973,72.40576 ZM59.578003,48.350098 C59.578003,48.350098 45.64978,34.421875 45.64978,34.421875 C45.64978,34.421875 49.42151,30.649902 49.42151,30.649902 C49.42151,30.649902 52.63501,33.86328 52.63501,33.86328 C52.63501,33.86328 56.364624,30.13379 56.364624,30.13379 C56.364624,30.13379 53.151245,26.92041 53.151245,26.92041 C53.151245,26.92041 59.278442,20.792969 59.278442,20.792969 C59.278442,20.792969 73.206665,34.720703 73.206665,34.720703 C73.206665,34.720703 59.578003,48.350098 59.578003,48.350098 ZM72.59741,26.652344 C72.59741,26.652344 67.347534,21.402344 67.347534,21.402344 C67.347534,21.402344 76.666016,12.083984 76.666016,12.083984 C76.666016,12.083984 81.91589,17.333984 81.91589,17.333984 C81.91589,17.333984 72.59741,26.652344 72.59741,26.652344 Z"/>
</svg>